<svg xmlns="http://www.w3.org/2000/svg" width="100" height="100" fill="none" viewBox="0 0 100 100"><path fill="url(#01d__01d__paint0_radial_149_1360)" d="M75.6 56.9L91 50l-15.4-6.8 9.8-13.7-16.7 1.8 1.7-16.8-13.6 9.9L50 9l-6.8 15.4-13.7-9.9 1.8 16.7-16.8-1.7 9.9 13.6L9 50l15.4 6.8-9.9 13.7 16.7-1.8-1.7 16.8 13.6-9.9L50 91l6.8-15.4 13.7 9.8-1.8-16.7 16.8 1.7-9.9-13.5z"/><path fill="#FFD348" d="M28.284 62.509c6.901 11.908 22.205 16.01 34.208 9.206C74.496 64.91 78.497 49.5 71.695 37.491c-6.902-11.908-22.206-16.01-34.21-9.206-11.901 6.905-16.002 22.315-9.2 34.224z"/><path fill="url(#01d__01d__paint1_linear_149_1360)" d="M31.8 60.493c5.798 9.998 18.695 13.497 28.693 7.699 9.998-5.799 13.497-18.696 7.699-28.694C62.393 29.5 49.496 26 39.498 31.799 29.5 37.6 26 50.496 31.799 60.493z"/><defs><radialGradient id="01d__01d__paint0_radial_149_1360" cx="0" cy="0" r="1" gradientTransform="matrix(41 0 0 41 50 50)" gradientUnits="userSpaceOnUse"><stop offset=".514" stop-color="#D6B849"/><stop offset=".652" stop-color="#FFCE47"/><stop offset="1" stop-color="#FFDB73"/></radialGradient><linearGradient id="01d__01d__paint1_linear_149_1360" x1="36.496" x2="63.495" y1="33.908" y2="66.084" gradientUnits="userSpaceOnUse"><stop stop-color="#FFAF22"/><stop offset=".99" stop-color="#F09900"/></linearGradient></defs></svg>