<?xml version="1.0" encoding="UTF-8" standalone="no"?>
<svg
   width="100"
   height="100"
   fill="none"
   viewBox="0 0 100 100"
   version="1.1"
   id="svg4447"
   sodipodi:docname="06m.svg"
   inkscape:version="1.2.2 (b0a8486541, 2022-12-01)"
   xmlns:inkscape="http://www.inkscape.org/namespaces/inkscape"
   xmlns:sodipodi="http://sodipodi.sourceforge.net/DTD/sodipodi-0.dtd"
   xmlns="http://www.w3.org/2000/svg"
   xmlns:svg="http://www.w3.org/2000/svg">
  <sodipodi:namedview
     id="namedview4449"
     pagecolor="#ffffff"
     bordercolor="#000000"
     borderopacity="0.25"
     inkscape:showpageshadow="2"
     inkscape:pageopacity="0.0"
     inkscape:pagecheckerboard="0"
     inkscape:deskcolor="#d1d1d1"
     showgrid="false"
     inkscape:zoom="10.27"
     inkscape:cx="50.53554"
     inkscape:cy="50.876339"
     inkscape:window-width="1067"
     inkscape:window-height="1288"
     inkscape:window-x="26"
     inkscape:window-y="23"
     inkscape:window-maximized="0"
     inkscape:current-layer="svg4447" />
  <path
     fill="url(#06m__06m__paint0_radial_149_1393)"
     fill-rule="evenodd"
     d="M45.384 20.79A29.687 29.687 0 0033.9 30.4h-1.1c-4.9 0-9.4 2.3-12.1 6.2a20.22 20.22 0 00-4.032.653l.36-3.56-11.523 1.242 6.831-9.453L1.71 20.79h43.674z"
     clip-rule="evenodd"
     id="path4394" />
  <path
     fill="#FFD348"
     fill-rule="evenodd"
     d="M45.384 20.79A29.687 29.687 0 0033.9 30.4h-1.1c-4.524 0-8.706 1.96-11.447 5.33a17.168 17.168 0 01-6.337-6.309 17.195 17.195 0 01-2.266-8.631h32.634z"
     clip-rule="evenodd"
     id="path4396" />
  <path
     fill="url(#06m__06m__paint1_linear_149_1393)"
     fill-rule="evenodd"
     d="M44.481 21.236A29.679 29.679 0 0033.9 30.4h-1.1c-3.508 0-6.81 1.179-9.395 3.28a14.474 14.474 0 01-5.96-5.646 14.29 14.29 0 01-1.935-7.244h28.98c0 .149-.004.297-.009.446z"
     clip-rule="evenodd"
     id="path4398" />
  <path
     fill="#21292B"
     fill-rule="evenodd"
     d="M1.5 18a1.5 1.5 0 000 3h43.45c3.912-1.93 8.264-3 12.75-3 .347 0 .694.006 1.04.019A1.509 1.509 0 0058.5 18h-57z"
     clip-rule="evenodd"
     id="path4400" />
  <path
     fill="#B2B2B2"
     fill-rule="evenodd"
     d="M57.7 23c11.7 0 21.7 8.6 23.6 19.9C87.5 44.5 92 50.2 92 56.8c0 7.9-6.5 14.3-14.4 14.3H61.363c-.406-1.049-1.097-1.815-2.163-2.3l-4-1.7 2.2-12.3c.4-1.9-.8-3.8-2.6-4.5-.4-.2-.8-.3-1.2-.3-1.4 0-2.8.8-3.5 2.1l-10.328 19H21.9c-3.9 0-7.6-1.5-10.3-4.2-2.9-2.7-4.5-6.4-4.6-10.5v-.2c0-3.8 1.5-7.4 4.2-10.2 2.8-2.9 6.6-4.5 10.7-4.5.6 0 1.1 0 1.7.1 1.4-3.7 5-6.2 9.2-6.2 1.2 0 2.4.2 3.6.7 4-8 12.2-13.1 21.3-13.1z"
     clip-rule="evenodd"
     id="path4402" />
  <path
     fill="url(#06m__06m__paint2_linear_149_1393)"
     fill-rule="evenodd"
     d="M57.7 23c11.7 0 21.7 8.6 23.6 19.9C87.5 44.5 92 50.2 92 56.8c0 7.9-6.5 14.3-14.4 14.3H61.363c-.406-1.049-1.097-1.815-2.163-2.3l-4-1.7 2.2-12.3c.4-1.9-.8-3.8-2.6-4.5-.4-.2-.8-.3-1.2-.3-1.4 0-2.8.8-3.5 2.1l-10.328 19H21.9c-3.9 0-7.6-1.5-10.3-4.2-2.9-2.7-4.5-6.4-4.6-10.5v-.2c0-3.8 1.5-7.4 4.2-10.2 2.8-2.9 6.6-4.5 10.7-4.5.6 0 1.1 0 1.7.1 1.4-3.7 5-6.2 9.2-6.2 1.2 0 2.4.2 3.6.7 4-8 12.2-13.1 21.3-13.1z"
     clip-rule="evenodd"
     style="mix-blend-mode:multiply"
     opacity=".6"
     id="path4404" />
  <g
     style="mix-blend-mode:multiply"
     filter="url(#06m__06m__filter0_f_149_1393)"
     opacity=".3"
     id="g4408">
    <path
       fill="url(#06m__06m__paint3_radial_149_1393)"
       fill-rule="evenodd"
       d="M44.073 63.187c-6.589.45-13.618.813-14.573.813-6.5 0-11 5.1-11 5.1h22.359l3.214-5.913zm12.412-3.27L57.4 54.8c.051-.243.076-.486.077-.727.648-.239 1.17-.47 1.17-.47s4.352-1.602 5.103-1.602c.75 0 .374-2.963.14-4.81l-.14-1.32c0-.362-.448-.885-1-1.53-.777-.908-1.762-2.057-2-3.34-.175-.94.026-2.082.172-2.91.091-.516.16-.91.104-1.058.112.053.922.327.922.327 1.948.66 5.03 1.74 7.802 3.64 1.658 1.138 3.941 3.314 3.941 3.314s1.645 1.272 2.059 1.687c1 1 4 4 6 4h5L89 51.59l.5 3.21c0 7.9-6.5 14.3-14.4 14.3H59.758a4.69 4.69 0 00-.558-.301l-4-1.7.926-5.178c.556-.355.562-1.108.359-2.004zm4.505-22.916c.014-.004.026.007.036.032 0 0-.05-.029-.036-.032z"
       clip-rule="evenodd"
       id="path4406" />
  </g>
  <path
     fill="#006EDB"
     d="M53.5 99c-.3 0-.7-.1-1-.2-1.3-.6-1.8-2-1.3-3.3l3.5-8c.6-1.3 2-1.8 3.3-1.3 1.3.6 1.8 2 1.3 3.3l-3.5 8c-.4 1-1.3 1.5-2.3 1.5zm15-9c-.3 0-.7-.1-1-.2-1.3-.6-1.8-2-1.3-3.3l3.5-8c.6-1.3 2-1.8 3.3-1.3 1.3.6 1.8 2 1.3 3.3l-3.5 8c-.4 1-1.3 1.5-2.3 1.5zm-36 0c-.3 0-.7-.1-1-.2-1.3-.6-1.8-2-1.3-3.3l3.5-8c.6-1.3 2-1.8 3.3-1.3 1.3.6 1.8 2 1.3 3.3l-3.5 8c-.4 1-1.3 1.5-2.3 1.5z"
     id="path4410"
     style="fill:#47bfe2;fill-opacity:1" />
  <path
     fill="#FF9D00"
     fill-rule="evenodd"
     d="M50.8 69.4L53.6 54 43 73.5l7.1 3L45.5 94l12.2-21.6-6.9-3z"
     clip-rule="evenodd"
     id="path4412"
     style="fill:#fedc15;fill-opacity:1" />
  <defs
     id="defs4445">
    <radialGradient
       id="06m__06m__paint0_radial_149_1393"
       cx="0"
       cy="0"
       r="1"
       gradientTransform="translate(30 20.79) scale(28.29)"
       gradientUnits="userSpaceOnUse">
      <stop
         offset=".514"
         stop-color="#D6B849"
         id="stop4414" />
      <stop
         offset=".652"
         stop-color="#FFCE47"
         id="stop4416" />
      <stop
         offset="1"
         stop-color="#FFDB73"
         id="stop4418" />
    </radialGradient>
    <radialGradient
       id="06m__06m__paint3_radial_149_1393"
       cx="0"
       cy="0"
       r="1"
       gradientTransform="matrix(6 22.50004 -32.59285 8.69142 68 41)"
       gradientUnits="userSpaceOnUse">
      <stop
         stop-color="#D5D5D5"
         id="stop4421" />
      <stop
         offset="1"
         stop-color="#D0D0D0"
         id="stop4423" />
      <stop
         offset="1"
         stop-color="#9B9B9B"
         stop-opacity="0"
         id="stop4425" />
    </radialGradient>
    <linearGradient
       id="06m__06m__paint1_linear_149_1393"
       x1="20.685"
       x2="39.315"
       y1="9.689"
       y2="31.891"
       gradientUnits="userSpaceOnUse">
      <stop
         stop-color="#FFAF22"
         id="stop4428" />
      <stop
         offset=".99"
         stop-color="#F09900"
         id="stop4430" />
    </linearGradient>
    <linearGradient
       id="06m__06m__paint2_linear_149_1393"
       x1="47.5"
       x2="49.5"
       y1="38.5"
       y2="71.1"
       gradientUnits="userSpaceOnUse">
      <stop
         offset=".484"
         stop-color="#fff"
         stop-opacity="0"
         id="stop4433" />
      <stop
         offset="1"
         stop-color="#B3B2B2"
         id="stop4435" />
    </linearGradient>
    <filter
       id="06m__06m__filter0_f_149_1393"
       width="79"
       height="40.101"
       x="14.5"
       y="33"
       color-interpolation-filters="sRGB"
       filterUnits="userSpaceOnUse">
      <feFlood
         flood-opacity="0"
         result="BackgroundImageFix"
         id="feFlood4438" />
      <feBlend
         in="SourceGraphic"
         in2="BackgroundImageFix"
         result="shape"
         id="feBlend4440" />
      <feGaussianBlur
         result="effect1_foregroundBlur_149_1393"
         stdDeviation="2"
         id="feGaussianBlur4442" />
    </filter>
  </defs>
</svg>
