<?xml version="1.0" encoding="UTF-8" standalone="no"?>
<svg
   width="100"
   height="100"
   fill="none"
   viewBox="0 0 100 100"
   version="1.1"
   id="svg42"
   sodipodi:docname="06n.svg"
   inkscape:version="1.2.2 (b0a8486541, 2022-12-01)"
   xmlns:inkscape="http://www.inkscape.org/namespaces/inkscape"
   xmlns:sodipodi="http://sodipodi.sourceforge.net/DTD/sodipodi-0.dtd"
   xmlns="http://www.w3.org/2000/svg"
   xmlns:svg="http://www.w3.org/2000/svg">
  <sodipodi:namedview
     id="namedview44"
     pagecolor="#ffffff"
     bordercolor="#000000"
     borderopacity="0.25"
     inkscape:showpageshadow="2"
     inkscape:pageopacity="0.0"
     inkscape:pagecheckerboard="0"
     inkscape:deskcolor="#d1d1d1"
     showgrid="false"
     inkscape:zoom="10.27"
     inkscape:cx="48.685492"
     inkscape:cy="50.097371"
     inkscape:window-width="1551"
     inkscape:window-height="1288"
     inkscape:window-x="26"
     inkscape:window-y="23"
     inkscape:window-maximized="0"
     inkscape:current-layer="svg42" />
  <path
     fill="url(#06n__06n__paint0_linear_149_1394)"
     fill-rule="evenodd"
     d="M28.443 13.565c0-3.869-1.116-7.514-2.902-10.638 9.666 1.234 17.247 8.91 18.378 18.607A29.67 29.67 0 0033.9 30.4h-1.1c-4.9 0-9.4 2.3-12.1 6.2-4.058.244-7.853 1.673-11.01 4.128a21.852 21.852 0 01-5.275-6.11c.892.148 1.785.222 2.752.222 11.754 0 21.276-9.522 21.276-21.275z"
     clip-rule="evenodd"
     id="path2"
     style="fill:#e9d9b1;fill-opacity:1" />
  <path
     fill="#B2B2B2"
     fill-rule="evenodd"
     d="M57.7 23c11.7 0 21.7 8.6 23.6 19.9C87.5 44.5 92 50.2 92 56.8c0 7.9-6.5 14.3-14.4 14.3H61.363c-.406-1.049-1.097-1.815-2.163-2.3l-4-1.7 2.2-12.3c.4-1.9-.8-3.8-2.6-4.5-.4-.2-.8-.3-1.2-.3-1.4 0-2.8.8-3.5 2.1l-10.328 19H21.9c-3.9 0-7.6-1.5-10.3-4.2-2.9-2.7-4.5-6.4-4.6-10.5v-.2c0-3.8 1.5-7.4 4.2-10.2 2.8-2.9 6.6-4.5 10.7-4.5.6 0 1.1 0 1.7.1 1.4-3.7 5-6.2 9.2-6.2 1.2 0 2.4.2 3.6.7 4-8 12.2-13.1 21.3-13.1z"
     clip-rule="evenodd"
     id="path4" />
  <path
     fill="url(#06n__06n__paint1_linear_149_1394)"
     fill-rule="evenodd"
     d="M57.7 23c11.7 0 21.7 8.6 23.6 19.9C87.5 44.5 92 50.2 92 56.8c0 7.9-6.5 14.3-14.4 14.3H61.363c-.406-1.049-1.097-1.815-2.163-2.3l-4-1.7 2.2-12.3c.4-1.9-.8-3.8-2.6-4.5-.4-.2-.8-.3-1.2-.3-1.4 0-2.8.8-3.5 2.1l-10.328 19H21.9c-3.9 0-7.6-1.5-10.3-4.2-2.9-2.7-4.5-6.4-4.6-10.5v-.2c0-3.8 1.5-7.4 4.2-10.2 2.8-2.9 6.6-4.5 10.7-4.5.6 0 1.1 0 1.7.1 1.4-3.7 5-6.2 9.2-6.2 1.2 0 2.4.2 3.6.7 4-8 12.2-13.1 21.3-13.1z"
     clip-rule="evenodd"
     style="mix-blend-mode:multiply"
     opacity=".6"
     id="path6" />
  <g
     style="mix-blend-mode:multiply"
     filter="url(#06n__06n__filter0_f_149_1394)"
     opacity=".3"
     id="g10">
    <path
       fill="url(#06n__06n__paint2_radial_149_1394)"
       fill-rule="evenodd"
       d="M44.073 63.187c-6.589.45-13.618.813-14.573.813-6.5 0-11 5.1-11 5.1h22.359l3.214-5.913zm12.412-3.27L57.4 54.8c.051-.243.076-.486.077-.727.648-.239 1.17-.47 1.17-.47s4.352-1.602 5.103-1.602c.75 0 .374-2.963.14-4.81l-.14-1.32c0-.362-.448-.885-1-1.53-.777-.908-1.762-2.057-2-3.34-.175-.94.026-2.082.172-2.91.091-.516.16-.91.104-1.058.112.053.922.327.922.327 1.948.66 5.03 1.74 7.802 3.64 1.658 1.138 3.941 3.314 3.941 3.314s1.645 1.272 2.059 1.687c1 1 4 4 6 4h5L89 51.59l.5 3.21c0 7.9-6.5 14.3-14.4 14.3H59.758a4.69 4.69 0 00-.558-.301l-4-1.7.926-5.178c.556-.355.562-1.108.359-2.004zm4.505-22.916c.014-.004.026.007.036.032 0 0-.05-.029-.036-.032z"
       clip-rule="evenodd"
       id="path8" />
  </g>
  <path
     fill="#006EDB"
     d="M53.5 99c-.3 0-.7-.1-1-.2-1.3-.6-1.8-2-1.3-3.3l3.5-8c.6-1.3 2-1.8 3.3-1.3 1.3.6 1.8 2 1.3 3.3l-3.5 8c-.4 1-1.3 1.5-2.3 1.5zm15-9c-.3 0-.7-.1-1-.2-1.3-.6-1.8-2-1.3-3.3l3.5-8c.6-1.3 2-1.8 3.3-1.3 1.3.6 1.8 2 1.3 3.3l-3.5 8c-.4 1-1.3 1.5-2.3 1.5zm-36 0c-.3 0-.7-.1-1-.2-1.3-.6-1.8-2-1.3-3.3l3.5-8c.6-1.3 2-1.8 3.3-1.3 1.3.6 1.8 2 1.3 3.3l-3.5 8c-.4 1-1.3 1.5-2.3 1.5z"
     id="path12"
     style="fill:#47bfe2;fill-opacity:1" />
  <path
     fill="#FF9D00"
     fill-rule="evenodd"
     d="M50.8 69.4L53.6 54 43 73.5l7.1 3L45.5 94l12.2-21.6-6.9-3z"
     clip-rule="evenodd"
     id="path14"
     style="fill:#fedc15;fill-opacity:1" />
  <defs
     id="defs40">
    <linearGradient
       id="06n__06n__paint0_linear_149_1394"
       x1="12.914"
       x2="40.256"
       y1="43.464"
       y2="10.878"
       gradientUnits="userSpaceOnUse">
      <stop
         stop-color="#686E73"
         id="stop16" />
      <stop
         offset=".989"
         stop-color="#6A7075"
         id="stop18" />
    </linearGradient>
    <linearGradient
       id="06n__06n__paint1_linear_149_1394"
       x1="47.5"
       x2="49.5"
       y1="38.5"
       y2="71.1"
       gradientUnits="userSpaceOnUse">
      <stop
         offset=".484"
         stop-color="#fff"
         stop-opacity="0"
         id="stop21" />
      <stop
         offset="1"
         stop-color="#B3B2B2"
         id="stop23" />
    </linearGradient>
    <radialGradient
       id="06n__06n__paint2_radial_149_1394"
       cx="0"
       cy="0"
       r="1"
       gradientTransform="matrix(6 22.50004 -32.59285 8.69142 68 41)"
       gradientUnits="userSpaceOnUse">
      <stop
         stop-color="#D5D5D5"
         id="stop26" />
      <stop
         offset="1"
         stop-color="#D0D0D0"
         id="stop28" />
      <stop
         offset="1"
         stop-color="#9B9B9B"
         stop-opacity="0"
         id="stop30" />
    </radialGradient>
    <filter
       id="06n__06n__filter0_f_149_1394"
       width="79"
       height="40.101"
       x="14.5"
       y="33"
       color-interpolation-filters="sRGB"
       filterUnits="userSpaceOnUse">
      <feFlood
         flood-opacity="0"
         result="BackgroundImageFix"
         id="feFlood33" />
      <feBlend
         in="SourceGraphic"
         in2="BackgroundImageFix"
         result="shape"
         id="feBlend35" />
      <feGaussianBlur
         result="effect1_foregroundBlur_149_1394"
         stdDeviation="2"
         id="feGaussianBlur37" />
    </filter>
  </defs>
</svg>
