<?xml version="1.0" encoding="UTF-8" standalone="no"?>
<svg
   width="100"
   height="100"
   fill="none"
   viewBox="0 0 100 100"
   version="1.1"
   id="svg72"
   sodipodi:docname="21d.svg"
   inkscape:version="1.2.1 (9c6d41e4, 2022-07-14)"
   xmlns:inkscape="http://www.inkscape.org/namespaces/inkscape"
   xmlns:sodipodi="http://sodipodi.sourceforge.net/DTD/sodipodi-0.dtd"
   xmlns="http://www.w3.org/2000/svg"
   xmlns:svg="http://www.w3.org/2000/svg">
  <sodipodi:namedview
     id="namedview74"
     pagecolor="#ffffff"
     bordercolor="#000000"
     borderopacity="0.25"
     inkscape:showpageshadow="2"
     inkscape:pageopacity="0.0"
     inkscape:pagecheckerboard="0"
     inkscape:deskcolor="#d1d1d1"
     showgrid="false"
     inkscape:zoom="2.36"
     inkscape:cx="50.423729"
     inkscape:cy="50"
     inkscape:window-width="1309"
     inkscape:window-height="456"
     inkscape:window-x="0"
     inkscape:window-y="25"
     inkscape:window-maximized="0"
     inkscape:current-layer="svg72" />
  <path
     fill="url(#21d__21d__paint0_radial_149_1411)"
     fill-rule="evenodd"
     d="M52.315 18.517l1.757-2.457-11.356 1.224L43.872 5.86l-9.248 6.732L30 2.12l-4.624 10.472L16.06 5.86l1.224 11.356L5.86 16.06l6.732 9.248L2.12 30l10.472 4.624L5.86 43.94l.57-.061A19.46 19.46 0 017.6 42.6c3.5-3.6 8.1-5.7 13.1-6 2.7-3.9 7.2-6.2 12.1-6.2h1.1c4.363-6.14 11.011-10.453 18.415-11.883z"
     clip-rule="evenodd"
     id="path2" />
  <path
     fill="#FFD348"
     fill-rule="evenodd"
     d="M14.867 37.83A20.01 20.01 0 0120.7 36.6c2.7-3.9 7.2-6.2 12.1-6.2h1.1a29.679 29.679 0 0110.672-9.21c-4.775-7.863-15.023-10.525-23.082-5.956-7.87 4.565-10.725 14.6-6.623 22.597z"
     clip-rule="evenodd"
     id="path4" />
  <path
     fill="url(#21d__21d__paint1_linear_149_1411)"
     fill-rule="evenodd"
     d="M17.565 37.034c1.022-.224 2.07-.37 3.135-.434 2.7-3.9 7.2-6.2 12.1-6.2h1.1a29.635 29.635 0 018.287-7.849c-4.026-6.562-12.633-8.81-19.328-4.927-6.765 3.923-9.155 12.626-5.294 19.41z"
     clip-rule="evenodd"
     id="path6" />
  <path
     fill="#B2B2B2"
     fill-rule="evenodd"
     d="M57.7 23c11.7 0 21.7 8.6 23.6 19.9C87.5 44.5 92 50.2 92 56.8c0 7.9-6.5 14.3-14.4 14.3H61.363c-.406-1.049-1.097-1.815-2.163-2.3l-4-1.7 2.2-12.3c.4-1.9-.8-3.8-2.6-4.5-.4-.2-.8-.3-1.2-.3-1.4 0-2.8.8-3.5 2.1l-10.328 19H21.9c-3.9 0-7.6-1.5-10.3-4.2-2.9-2.7-4.5-6.4-4.6-10.5v-.2c0-3.8 1.5-7.4 4.2-10.2 2.8-2.9 6.6-4.5 10.7-4.5.6 0 1.1 0 1.7.1 1.4-3.7 5-6.2 9.2-6.2 1.2 0 2.4.2 3.6.7 4-8 12.2-13.1 21.3-13.1z"
     clip-rule="evenodd"
     id="path8" />
  <path
     fill="url(#21d__21d__paint2_linear_149_1411)"
     fill-rule="evenodd"
     d="M57.7 23c11.7 0 21.7 8.6 23.6 19.9C87.5 44.5 92 50.2 92 56.8c0 7.9-6.5 14.3-14.4 14.3H61.363c-.406-1.049-1.097-1.815-2.163-2.3l-4-1.7 2.2-12.3c.4-1.9-.8-3.8-2.6-4.5-.4-.2-.8-.3-1.2-.3-1.4 0-2.8.8-3.5 2.1l-10.328 19H21.9c-3.9 0-7.6-1.5-10.3-4.2-2.9-2.7-4.5-6.4-4.6-10.5v-.2c0-3.8 1.5-7.4 4.2-10.2 2.8-2.9 6.6-4.5 10.7-4.5.6 0 1.1 0 1.7.1 1.4-3.7 5-6.2 9.2-6.2 1.2 0 2.4.2 3.6.7 4-8 12.2-13.1 21.3-13.1z"
     clip-rule="evenodd"
     style="mix-blend-mode:multiply"
     opacity=".6"
     id="path10" />
  <g
     style="mix-blend-mode:multiply"
     filter="url(#21d__21d__filter0_f_149_1411)"
     opacity=".3"
     id="g14">
    <path
       fill="url(#21d__21d__paint3_radial_149_1411)"
       fill-rule="evenodd"
       d="M44.073 63.187c-6.589.45-13.618.813-14.573.813-6.5 0-11 5.1-11 5.1h22.359l3.214-5.913zm12.412-3.27L57.4 54.8c.051-.243.076-.486.077-.727.648-.239 1.17-.47 1.17-.47s4.352-1.602 5.103-1.602c.75 0 .374-2.963.14-4.81l-.14-1.32c0-.362-.448-.885-1-1.53-.777-.908-1.762-2.057-2-3.34-.175-.94.026-2.082.172-2.91.091-.516.16-.91.104-1.058.112.053.922.327.922.327 1.948.66 5.03 1.74 7.802 3.64 1.658 1.138 3.941 3.314 3.941 3.314s1.645 1.272 2.059 1.687c1 1 4 4 6 4h5L89 51.59l.5 3.21c0 7.9-6.5 14.3-14.4 14.3H59.758a4.69 4.69 0 00-.558-.301l-4-1.7.926-5.178c.556-.355.562-1.108.359-2.004zm4.505-22.916c.014-.004.026.007.036.032 0 0-.05-.029-.036-.032z"
       clip-rule="evenodd"
       id="path12" />
  </g>
  <path
     fill="#FF9D00"
     fill-rule="evenodd"
     d="M50.8 69.4L53.6 54 43 73.5l7.1 3L45.5 94l12.2-21.6-6.9-3z"
     clip-rule="evenodd"
     id="path16"
     style="fill:#fedc15;fill-opacity:1" />
  <g
     clip-path="url(#21d__21d__clip0_149_1411)"
     id="g20"
     style="fill:#e1f5fe;fill-opacity:1">
    <path
       fill="#00B8F1"
       d="M37.7 83.5h-2.8l1.4-2.5c.4-.6.2-1.5-.5-1.8-.7-.4-1.5-.2-1.9.5l-1.4 2.4-1.4-2.4c-.4-.7-1.2-.9-1.8-.5-.4.2-.6.5-.7.8-.1.3 0 .7.1 1l1.4 2.4h-2.7c-.8.1-1.4.7-1.4 1.4s.6 1.4 1.4 1.4h2.8l-1.4 2.4c-.2.3-.2.7-.1 1 .1.3.3.6.6.8.6.4 1.5.1 1.8-.5l1.4-2.4 1.4 2.5c.2.4.7.7 1.2.7.2 0 .5-.1.7-.2.6-.4.9-1.2.5-1.8l-1.4-2.5h2.8c.7 0 1.4-.6 1.4-1.4 0-.8-.7-1.3-1.4-1.3z"
       id="path18"
       style="fill:#e1f5fe;fill-opacity:1" />
  </g>
  <g
     clip-path="url(#21d__21d__clip1_149_1411)"
     id="g24"
     style="fill:#e1f5fe;fill-opacity:1">
    <path
       fill="#00B8F1"
       d="M64.7 92.5h-2.8l1.4-2.5c.4-.6.2-1.5-.5-1.8-.7-.4-1.5-.2-1.9.5l-1.4 2.4-1.4-2.4c-.4-.7-1.2-.9-1.8-.5-.4.2-.6.5-.7.8-.1.3 0 .7.1 1l1.4 2.4h-2.7c-.8.1-1.4.7-1.4 1.4s.6 1.4 1.4 1.4h2.8l-1.4 2.4c-.2.3-.2.7-.1 1 .1.3.3.6.6.8.6.4 1.5.1 1.8-.5l1.4-2.4 1.4 2.5c.2.4.7.7 1.2.7.2 0 .5-.1.7-.2.6-.4.9-1.2.5-1.8l-1.4-2.5h2.8c.7 0 1.4-.6 1.4-1.4 0-.8-.7-1.3-1.4-1.3z"
       id="path22"
       style="fill:#e1f5fe;fill-opacity:1" />
  </g>
  <g
     clip-path="url(#21d__21d__clip2_149_1411)"
     id="g28"
     style="fill:#e1f5fe;fill-opacity:1">
    <path
       fill="#00B8F1"
       d="M77.7 83.5h-2.8l1.4-2.5c.4-.6.2-1.5-.5-1.8-.7-.4-1.5-.2-1.9.5l-1.4 2.4-1.4-2.4c-.4-.7-1.2-.9-1.8-.5-.4.2-.6.5-.7.8-.1.3 0 .7.1 1l1.4 2.4h-2.7c-.8.1-1.4.7-1.4 1.4s.6 1.4 1.4 1.4h2.8l-1.4 2.4c-.2.3-.2.7-.1 1 .1.3.3.6.6.8.6.4 1.5.1 1.8-.5l1.4-2.4 1.4 2.5c.2.4.7.7 1.2.7.2 0 .5-.1.7-.2.6-.4.9-1.2.5-1.8l-1.4-2.5h2.8c.7 0 1.4-.6 1.4-1.4 0-.8-.7-1.3-1.4-1.3z"
       id="path26"
       style="fill:#e1f5fe;fill-opacity:1" />
  </g>
  <defs
     id="defs70">
    <clipPath
       id="21d__21d__clip0_149_1411">
      <path
         fill="#fff"
         d="M0 0h13v11.6H0z"
         transform="translate(26 79)"
         id="path30" />
    </clipPath>
    <clipPath
       id="21d__21d__clip1_149_1411">
      <path
         fill="#fff"
         d="M0 0h13v11.6H0z"
         transform="translate(53 88)"
         id="path33" />
    </clipPath>
    <clipPath
       id="21d__21d__clip2_149_1411">
      <path
         fill="#fff"
         d="M0 0h13v11.6H0z"
         transform="translate(66 79)"
         id="path36" />
    </clipPath>
    <radialGradient
       id="21d__21d__paint0_radial_149_1411"
       cx="0"
       cy="0"
       r="1"
       gradientTransform="translate(30 30) scale(27.88)"
       gradientUnits="userSpaceOnUse">
      <stop
         offset=".514"
         stop-color="#D6B849"
         id="stop39" />
      <stop
         offset=".652"
         stop-color="#FFCE47"
         id="stop41" />
      <stop
         offset="1"
         stop-color="#FFDB73"
         id="stop43" />
    </radialGradient>
    <radialGradient
       id="21d__21d__paint3_radial_149_1411"
       cx="0"
       cy="0"
       r="1"
       gradientTransform="matrix(6 22.50004 -32.59285 8.69142 68 41)"
       gradientUnits="userSpaceOnUse">
      <stop
         stop-color="#D5D5D5"
         id="stop46" />
      <stop
         offset="1"
         stop-color="#D0D0D0"
         id="stop48" />
      <stop
         offset="1"
         stop-color="#9B9B9B"
         stop-opacity="0"
         id="stop50" />
    </radialGradient>
    <linearGradient
       id="21d__21d__paint1_linear_149_1411"
       x1="20.817"
       x2="39.177"
       y1="19.057"
       y2="40.937"
       gradientUnits="userSpaceOnUse">
      <stop
         stop-color="#FFAF22"
         id="stop53" />
      <stop
         offset=".99"
         stop-color="#F09900"
         id="stop55" />
    </linearGradient>
    <linearGradient
       id="21d__21d__paint2_linear_149_1411"
       x1="47.5"
       x2="49.5"
       y1="38.5"
       y2="71.1"
       gradientUnits="userSpaceOnUse">
      <stop
         offset=".484"
         stop-color="#fff"
         stop-opacity="0"
         id="stop58" />
      <stop
         offset="1"
         stop-color="#B3B2B2"
         id="stop60" />
    </linearGradient>
    <filter
       id="21d__21d__filter0_f_149_1411"
       width="79"
       height="40.101"
       x="14.5"
       y="33"
       color-interpolation-filters="sRGB"
       filterUnits="userSpaceOnUse">
      <feFlood
         flood-opacity="0"
         result="BackgroundImageFix"
         id="feFlood63" />
      <feBlend
         in="SourceGraphic"
         in2="BackgroundImageFix"
         result="shape"
         id="feBlend65" />
      <feGaussianBlur
         result="effect1_foregroundBlur_149_1411"
         stdDeviation="2"
         id="feGaussianBlur67" />
    </filter>
  </defs>
</svg>
