<?xml version="1.0" encoding="UTF-8" standalone="no"?>
<svg xmlns:inkscape="http://www.inkscape.org/namespaces/inkscape" xmlns:sodipodi="http://sodipodi.sourceforge.net/DTD/sodipodi-0.dtd" fill="none" height="100" id="svg42" version="1.1"
    viewBox="0 0 100 100" width="100"
    xmlns="http://www.w3.org/2000/svg"
    inkscape:version="1.2.1 (9c6d41e4, 2022-07-14)"
    sodipodi:docname="25n.svg">
    <sodipodi:namedview bordercolor="#000000" borderopacity="0.25" id="namedview44"
        pagecolor="#ffffff" showgrid="false" inkscape:current-layer="svg42"
        inkscape:cx="41.101695" inkscape:cy="50" inkscape:deskcolor="#d1d1d1"
        inkscape:pagecheckerboard="0" inkscape:pageopacity="0.0" inkscape:showpageshadow="2" inkscape:window-height="456"
        inkscape:window-maximized="0" inkscape:window-width="1309" inkscape:window-x="0"
        inkscape:window-y="25" inkscape:zoom="2.36" />
    <path style="fill:#e9d9b1;fill-opacity:1" clip-rule="evenodd"
        d="M28.443 13.565c0-3.869-1.116-7.514-2.902-10.638 9.666 1.234 17.247 8.91 18.378 18.607A29.67 29.67 0 0033.9 30.4h-1.1c-4.9 0-9.4 2.3-12.1 6.2-4.058.243-7.853 1.673-11.01 4.128a21.853 21.853 0 01-5.275-6.111c.892.149 1.785.223 2.752.223 11.754 0 21.276-9.522 21.276-21.275z"
        fill="url(#25n__25n__paint0_linear_149_1421)" fill-rule="evenodd" id="path2" />
    <path clip-rule="evenodd" d="M57.7 23c11.7 0 21.7 8.6 23.6 19.9C87.5 44.5 92 50.2 92 56.8c0 7.9-6.5 14.3-14.4 14.3H61.363c-.406-1.049-1.097-1.815-2.163-2.3l-4-1.7 2.2-12.3c.4-1.9-.8-3.8-2.6-4.5-.4-.2-.8-.3-1.2-.3-1.4 0-2.8.8-3.5 2.1l-10.328 19H21.9c-3.9 0-7.6-1.5-10.3-4.2-2.9-2.7-4.5-6.4-4.6-10.5v-.2c0-3.8 1.5-7.4 4.2-10.2 2.8-2.9 6.6-4.5 10.7-4.5.6 0 1.1 0 1.7.1 1.4-3.7 5-6.2 9.2-6.2 1.2 0 2.4.2 3.6.7 4-8 12.2-13.1 21.3-13.1z"
        fill="#999"
        fill-rule="evenodd" id="path4" />
    <path style="mix-blend-mode:multiply" clip-rule="evenodd"
        d="M57.7 23c11.7 0 21.7 8.6 23.6 19.9C87.5 44.5 92 50.2 92 56.8c0 7.9-6.5 14.3-14.4 14.3H61.363c-.406-1.049-1.097-1.815-2.163-2.3l-4-1.7 2.2-12.3c.4-1.9-.8-3.8-2.6-4.5-.4-.2-.8-.3-1.2-.3-1.4 0-2.8.8-3.5 2.1l-10.328 19H21.9c-3.9 0-7.6-1.5-10.3-4.2-2.9-2.7-4.5-6.4-4.6-10.5v-.2c0-3.8 1.5-7.4 4.2-10.2 2.8-2.9 6.6-4.5 10.7-4.5.6 0 1.1 0 1.7.1 1.4-3.7 5-6.2 9.2-6.2 1.2 0 2.4.2 3.6.7 4-8 12.2-13.1 21.3-13.1z"
        fill="url(#25n__25n__paint1_linear_149_1421)" fill-rule="evenodd" id="path6" opacity=".6" />
    <g style="mix-blend-mode:multiply" filter="url(#25n__25n__filter0_f_149_1421)" id="g10"
        opacity=".3">
        <path clip-rule="evenodd" d="M44.073 63.187c-6.589.45-13.618.813-14.573.813-6.5 0-11 5.1-11 5.1h22.359l3.214-5.913zm12.412-3.27L57.4 54.8c.051-.243.076-.486.077-.727.648-.239 1.17-.47 1.17-.47s4.352-1.602 5.103-1.602c.75 0 .374-2.963.14-4.81l-.14-1.32c0-.362-.448-.885-1-1.53-.777-.908-1.762-2.057-2-3.34-.175-.94.026-2.082.172-2.91.091-.516.16-.91.104-1.058.112.053.922.327.922.327 1.948.66 5.03 1.74 7.802 3.64 1.658 1.138 3.941 3.314 3.941 3.314s1.645 1.272 2.059 1.687c1 1 4 4 6 4h5L89 51.59l.5 3.21c0 7.9-6.5 14.3-14.4 14.3H59.758a4.69 4.69 0 00-.558-.301l-4-1.7.926-5.178c.556-.355.562-1.108.359-2.004zm4.505-22.916c.014-.004.026.007.036.032 0 0-.05-.029-.036-.032z"
            fill="url(#25n__25n__paint2_radial_149_1421)"
            fill-rule="evenodd" id="path8" />
    </g>
    <path style="fill:#4fc3f7;fill-opacity:1"
        d="M85.5 99c-.3 0-.7-.1-1-.2-1.3-.6-1.8-2-1.3-3.3l3.5-8c.6-1.3 2-1.8 3.3-1.3 1.3.6 1.8 2 1.3 3.3l-3.5 8c-.4 1-1.3 1.5-2.3 1.5zm-53 0c-.3 0-.7-.1-1-.2-1.3-.6-1.8-2-1.3-3.3l3.5-8c.6-1.3 2-1.8 3.3-1.3 1.3.6 1.8 2 1.3 3.3l-3.5 8c-.4 1-1.3 1.5-2.3 1.5zm27-9c-.3 0-.7-.1-1-.2-1.3-.6-1.8-2-1.3-3.3l3.5-8c.6-1.3 2-1.8 3.3-1.3 1.3.6 1.8 2 1.3 3.3l-3.5 8c-.4 1-1.3 1.5-2.3 1.5zm12 0c-.3 0-.7-.1-1-.2-1.3-.6-1.8-2-1.3-3.3l3.5-8c.6-1.3 2-1.8 3.3-1.3 1.3.6 1.8 2 1.3 3.3l-3.5 8c-.4 1-1.3 1.5-2.3 1.5zm-50 0c-.3 0-.7-.1-1-.2-1.3-.6-1.8-2-1.3-3.3l3.5-8c.6-1.3 2-1.8 3.3-1.3 1.3.6 1.8 2 1.3 3.3l-3.5 8c-.4 1-1.3 1.5-2.3 1.5z"
        fill="#006EDB" id="path12" />
    <path style="fill:#fedc15;fill-opacity:1" clip-rule="evenodd"
        d="M50.8 69.4L53.6 54 43 73.5l7.1 3L45.5 94l12.2-21.6-6.9-3z" fill="#FF9D00"
        fill-rule="evenodd" id="path14" />
    <defs id="defs40">
        <linearGradient gradientUnits="userSpaceOnUse" id="25n__25n__paint0_linear_149_1421" x1="12.914" x2="40.256"
            y1="43.464" y2="10.878">
            <stop style="stop-color:#e9d9b1;stop-opacity:1;" id="stop16" offset="0"
                stop-color="#686E73" />
            <stop id="stop18" offset=".989" stop-color="#6A7075" />
        </linearGradient>
        <linearGradient gradientUnits="userSpaceOnUse" id="25n__25n__paint1_linear_149_1421" x1="47.5" x2="49.5"
            y1="38.5" y2="71.1">
            <stop id="stop21" offset=".484" stop-color="#fff" stop-opacity="0" />
            <stop id="stop23" offset="1" stop-color="#B3B2B2" />
        </linearGradient>
        <radialGradient cx="0" cy="0" gradientTransform="matrix(6 22.50004 -32.59285 8.69142 68 41)" gradientUnits="userSpaceOnUse"
            id="25n__25n__paint2_radial_149_1421"
            r="1">
            <stop id="stop26" stop-color="#D5D5D5" />
            <stop id="stop28" offset="1" stop-color="#D0D0D0" />
            <stop id="stop30" offset="1" stop-color="#9B9B9B" stop-opacity="0" />
        </radialGradient>
        <filter color-interpolation-filters="sRGB" filterUnits="userSpaceOnUse" height="40.101" id="25n__25n__filter0_f_149_1421" width="79"
            x="14.5" y="33">
            <feFlood flood-opacity="0" id="feFlood33" result="BackgroundImageFix" />
            <feBlend id="feBlend35" in="SourceGraphic" in2="BackgroundImageFix" result="shape" />
            <feGaussianBlur id="feGaussianBlur37" result="effect1_foregroundBlur_149_1421"
                stdDeviation="2" />
        </filter>
    </defs>
</svg>
