<?xml version="1.0" encoding="UTF-8" standalone="no"?>
<svg xmlns:inkscape="http://www.inkscape.org/namespaces/inkscape" xmlns:sodipodi="http://sodipodi.sourceforge.net/DTD/sodipodi-0.dtd" fill="none" height="100" id="svg42" version="1.1"
    viewBox="0 0 100 100" width="100"
    xmlns="http://www.w3.org/2000/svg"
    inkscape:version="1.2.1 (9c6d41e4, 2022-07-14)"
    sodipodi:docname="31.svg">
    <sodipodi:namedview bordercolor="#000000" borderopacity="0.25" id="namedview44"
        pagecolor="#ffffff" showgrid="false" inkscape:current-layer="svg42"
        inkscape:cx="50.423729" inkscape:cy="50" inkscape:deskcolor="#d1d1d1"
        inkscape:pagecheckerboard="0" inkscape:pageopacity="0.0" inkscape:showpageshadow="2" inkscape:window-height="456"
        inkscape:window-maximized="0" inkscape:window-width="1309" inkscape:window-x="0"
        inkscape:window-y="25" inkscape:zoom="2.36" />
    <path clip-rule="evenodd" d="M57.7 23c11.7 0 21.7 8.6 23.6 19.9C87.5 44.5 92 50.2 92 56.8c0 7.9-6.5 14.3-14.4 14.3H61.363c-.406-1.049-1.097-1.815-2.163-2.3l-4-1.7 2.2-12.3c.4-1.9-.8-3.8-2.6-4.5-.4-.2-.8-.3-1.2-.3-1.4 0-2.8.8-3.5 2.1l-10.328 19H21.9c-3.9 0-7.6-1.5-10.3-4.2-2.9-2.7-4.5-6.4-4.6-10.5v-.2c0-3.8 1.5-7.4 4.2-10.2 2.8-2.9 6.6-4.5 10.7-4.5.6 0 1.1 0 1.7.1 1.4-3.7 5-6.2 9.2-6.2 1.2 0 2.4.2 3.6.7 4-8 12.2-13.1 21.3-13.1z"
        fill="#CCC"
        fill-rule="evenodd" id="path2" />
    <path style="mix-blend-mode:multiply" clip-rule="evenodd"
        d="M57.7 23c11.7 0 21.7 8.6 23.6 19.9C87.5 44.5 92 50.2 92 56.8c0 7.9-6.5 14.3-14.4 14.3H61.363c-.406-1.049-1.097-1.815-2.163-2.3l-4-1.7 2.2-12.3c.4-1.9-.8-3.8-2.6-4.5-.4-.2-.8-.3-1.2-.3-1.4 0-2.8.8-3.5 2.1l-10.328 19H21.9c-3.9 0-7.6-1.5-10.3-4.2-2.9-2.7-4.5-6.4-4.6-10.5v-.2c0-3.8 1.5-7.4 4.2-10.2 2.8-2.9 6.6-4.5 10.7-4.5.6 0 1.1 0 1.7.1 1.4-3.7 5-6.2 9.2-6.2 1.2 0 2.4.2 3.6.7 4-8 12.2-13.1 21.3-13.1z"
        fill="url(#31__31__paint0_linear_149_1435)" fill-rule="evenodd" id="path4" opacity=".6" />
    <g style="mix-blend-mode:multiply" filter="url(#31__31__filter0_f_149_1435)" id="g8"
        opacity=".3">
        <path clip-rule="evenodd" d="M44.073 63.187c-6.589.45-13.618.813-14.573.813-6.5 0-11 5.1-11 5.1h22.359l3.214-5.913zm12.412-3.27L57.4 54.8c.051-.243.076-.486.077-.727.648-.239 1.17-.47 1.17-.47s4.352-1.602 5.103-1.602c.75 0 .374-2.963.14-4.81l-.14-1.32c0-.362-.448-.885-1-1.53-.777-.908-1.762-2.057-2-3.34-.175-.94.026-2.082.172-2.91.091-.516.16-.91.104-1.058.112.053.922.327.922.327 1.948.66 5.03 1.74 7.802 3.64 1.658 1.138 3.941 3.314 3.941 3.314s1.645 1.272 2.059 1.687c1 1 4 4 6 4h5L89 51.59l.5 3.21c0 7.9-6.5 14.3-14.4 14.3H59.758a4.69 4.69 0 00-.558-.301l-4-1.7.926-5.178c.556-.355.562-1.108.359-2.004zm4.505-22.916c.014-.004.026.007.036.032 0 0-.05-.029-.036-.032z"
            fill="url(#31__31__paint1_radial_149_1435)"
            fill-rule="evenodd" id="path6" />
    </g>
    <path style="fill:#fedc15;fill-opacity:1" clip-rule="evenodd"
        d="M50.8 69.4L53.6 54 43 73.5l7.1 3L45.5 94l12.2-21.6-6.9-3z" fill="#FF9D00"
        fill-rule="evenodd" id="path10" />
    <g style="fill:#e1f5fe;fill-opacity:1" clip-path="url(#31__31__clip0_149_1435)" id="g14">
        <path style="fill:#e1f5fe;fill-opacity:1"
            d="M39.7 92.5h-2.8l1.4-2.5c.4-.6.2-1.5-.5-1.8-.7-.4-1.5-.2-1.9.5l-1.4 2.4-1.4-2.4c-.4-.7-1.2-.9-1.8-.5-.4.2-.6.5-.7.8-.1.3 0 .7.1 1l1.4 2.4h-2.7c-.8.1-1.4.7-1.4 1.4s.6 1.4 1.4 1.4h2.8l-1.4 2.4c-.2.3-.2.7-.1 1 .1.3.3.6.6.8.6.4 1.5.1 1.8-.5l1.4-2.4 1.4 2.5c.2.4.7.7 1.2.7.2 0 .5-.1.7-.2.6-.4.9-1.2.5-1.8l-1.4-2.5h2.8c.7 0 1.4-.6 1.4-1.4 0-.8-.7-1.3-1.4-1.3z"
            fill="#00B8F1" id="path12" />
    </g>
    <path style="fill:#4fc3f7;fill-opacity:1"
        d="M61.5 93c-.3 0-.7-.1-1-.2-1.3-.6-1.8-2-1.3-3.3l3.5-8c.6-1.3 2-1.8 3.3-1.3 1.3.6 1.8 2 1.3 3.3l-3.5 8c-.4 1-1.3 1.5-2.3 1.5z"
        fill="#006EDB" id="path16" />
    <defs id="defs40">
        <radialGradient cx="0" cy="0" gradientTransform="matrix(6 22.50004 -32.59285 8.69142 68 41)" gradientUnits="userSpaceOnUse"
            id="31__31__paint1_radial_149_1435"
            r="1">
            <stop id="stop18" stop-color="#D5D5D5" />
            <stop id="stop20" offset="1" stop-color="#D0D0D0" />
            <stop id="stop22" offset="1" stop-color="#9B9B9B" stop-opacity="0" />
        </radialGradient>
        <linearGradient gradientUnits="userSpaceOnUse" id="31__31__paint0_linear_149_1435" x1="47.5" x2="49.5" y1="38.5"
            y2="71.1">
            <stop id="stop25" offset=".484" stop-color="#fff" stop-opacity="0" />
            <stop id="stop27" offset="1" stop-color="#B3B2B2" />
        </linearGradient>
        <clipPath id="31__31__clip0_149_1435">
            <path d="M0 0h13v11.6H0z" fill="#fff" id="path30" transform="translate(28 88)" />
        </clipPath>
        <filter color-interpolation-filters="sRGB" filterUnits="userSpaceOnUse" height="40.101" id="31__31__filter0_f_149_1435" width="79"
            x="14.5" y="33">
            <feFlood flood-opacity="0" id="feFlood33" result="BackgroundImageFix" />
            <feBlend id="feBlend35" in="SourceGraphic" in2="BackgroundImageFix" result="shape" />
            <feGaussianBlur id="feGaussianBlur37" result="effect1_foregroundBlur_149_1435"
                stdDeviation="2" />
        </filter>
    </defs>
</svg>
