<?xml version="1.0" encoding="UTF-8" standalone="no"?>
<svg xmlns:inkscape="http://www.inkscape.org/namespaces/inkscape" xmlns:sodipodi="http://sodipodi.sourceforge.net/DTD/sodipodi-0.dtd" fill="none" height="100" id="svg40" version="1.1"
    viewBox="0 0 100 100" width="100"
    xmlns="http://www.w3.org/2000/svg"
    inkscape:version="1.2.1 (9c6d41e4, 2022-07-14)"
    sodipodi:docname="41n.svg">
    <sodipodi:namedview bordercolor="#000000" borderopacity="0.25" id="namedview42"
        pagecolor="#ffffff" showgrid="false" inkscape:current-layer="svg40"
        inkscape:cx="41.101695" inkscape:cy="50" inkscape:deskcolor="#d1d1d1"
        inkscape:pagecheckerboard="0" inkscape:pageopacity="0.0" inkscape:showpageshadow="2" inkscape:window-height="456"
        inkscape:window-maximized="0" inkscape:window-width="1309" inkscape:window-x="0"
        inkscape:window-y="25" inkscape:zoom="2.36" />
    <path style="fill:#e9d9b1;fill-opacity:1" clip-rule="evenodd"
        d="M28.443 13.565c0-3.869-1.116-7.514-2.902-10.638 9.666 1.234 17.247 8.91 18.378 18.607A29.67 29.67 0 0033.9 30.4h-1.1c-4.9 0-9.4 2.3-12.1 6.2-4.058.243-7.853 1.673-11.01 4.128a21.853 21.853 0 01-5.275-6.111c.892.149 1.785.223 2.752.223 11.754 0 21.276-9.522 21.276-21.275z"
        fill="url(#41n__41n__paint0_linear_149_1444)" fill-rule="evenodd" id="path2" />
    <path clip-rule="evenodd" d="M81.3 42.9C79.4 31.6 69.4 23 57.7 23c-9.1 0-17.3 5.1-21.3 13.1-1.2-.5-2.4-.7-3.6-.7-4.2 0-7.8 2.5-9.2 6.2-.6-.1-1.1-.1-1.7-.1-4.1 0-7.9 1.6-10.7 4.5C8.5 48.8 7 52.4 7 56.2v.2c.1 4.1 1.7 7.8 4.6 10.5 2.7 2.7 6.4 4.2 10.3 4.2h55.7c7.9 0 14.4-6.4 14.4-14.3 0-6.6-4.5-12.3-10.7-13.9z"
        fill="#999"
        fill-rule="evenodd" id="path4" />
    <path style="mix-blend-mode:multiply" clip-rule="evenodd"
        d="M81.3 42.9C79.4 31.6 69.4 23 57.7 23c-9.1 0-17.3 5.1-21.3 13.1-1.2-.5-2.4-.7-3.6-.7-4.2 0-7.8 2.5-9.2 6.2-.6-.1-1.1-.1-1.7-.1-4.1 0-7.9 1.6-10.7 4.5C8.5 48.8 7 52.4 7 56.2v.2c.1 4.1 1.7 7.8 4.6 10.5 2.7 2.7 6.4 4.2 10.3 4.2h55.7c7.9 0 14.4-6.4 14.4-14.3 0-6.6-4.5-12.3-10.7-13.9z"
        fill="url(#41n__41n__paint1_linear_149_1444)" fill-rule="evenodd" id="path6" opacity=".6" />
    <g style="mix-blend-mode:multiply" filter="url(#41n__41n__filter0_f_149_1444)" id="g10"
        opacity=".3">
        <path d="M29.5 64c1.787 0 24.848-1.272 26.48-2 2.23-.994-2.39-6.972 0-7.47 1.08-.224 2.667-.927 2.667-.927s4.352-1.602 5.103-1.602c.75 0 .374-2.964.14-4.81l-.14-1.32c0-.87-2.592-2.674-3-4.87-.284-1.527.424-3.585.276-3.968 0 0-.05-.029-.036-.032.014-.004.026.007.036.032.112.053.922.327.922.327 1.948.66 5.03 1.74 7.802 3.64 1.658 1.138 3.941 3.314 3.941 3.314s1.645 1.272 2.059 1.687c1 1 4 4 6 4h5L89 51.59l.5 3.21c0 7.9-6.5 14.3-14.4 14.3H18.5S23 64 29.5 64z"
            fill="url(#41n__41n__paint2_radial_149_1444)"
            id="path8" />
    </g>
    <path style="fill:#4fc3f7;fill-opacity:1"
        d="M21.5 90c-.3 0-.7-.1-1-.2-1.3-.6-1.8-2-1.3-3.3l3.5-8c.6-1.3 2-1.8 3.3-1.3 1.3.6 1.8 2 1.3 3.3l-3.5 8c-.4 1-1.3 1.5-2.3 1.5zm14 9c-.3 0-.7-.1-1-.2-1.3-.6-1.8-2-1.3-3.3l3.5-8c.6-1.3 2-1.8 3.3-1.3 1.3.6 1.8 2 1.3 3.3l-3.5 8c-.4 1-1.3 1.5-2.3 1.5zm42 0c-.3 0-.7-.1-1-.2-1.3-.6-1.8-2-1.3-3.3l3.5-8c.6-1.3 2-1.8 3.3-1.3 1.3.6 1.8 2 1.3 3.3l-3.5 8c-.4 1-1.3 1.5-2.3 1.5zm-14-9c-.3 0-.7-.1-1-.2-1.3-.6-1.8-2-1.3-3.3l3.5-8c.6-1.3 2-1.8 3.3-1.3 1.3.6 1.8 2 1.3 3.3l-3.5 8c-.4 1-1.3 1.5-2.3 1.5zm-13 0c-.3 0-.7-.1-1-.2-1.3-.6-1.8-2-1.3-3.3l3.5-8c.6-1.3 2-1.8 3.3-1.3 1.3.6 1.8 2 1.3 3.3l-3.5 8c-.4 1-1.3 1.5-2.3 1.5z"
        fill="#006EDB" id="path12" />
    <defs id="defs38">
        <linearGradient gradientUnits="userSpaceOnUse" id="41n__41n__paint0_linear_149_1444" x1="12.914" x2="40.256"
            y1="43.464" y2="10.878">
            <stop style="stop-color:#fedc15;stop-opacity:1;" id="stop14" offset="0"
                stop-color="#686E73" />
            <stop id="stop16" offset=".989" stop-color="#6A7075" />
        </linearGradient>
        <linearGradient gradientUnits="userSpaceOnUse" id="41n__41n__paint1_linear_149_1444" x1="47.5" x2="49.5"
            y1="38.5" y2="71.1">
            <stop id="stop19" offset=".484" stop-color="#fff" stop-opacity="0" />
            <stop id="stop21" offset="1" stop-color="#B3B2B2" />
        </linearGradient>
        <radialGradient cx="0" cy="0" gradientTransform="matrix(6 22.50004 -32.59285 8.69142 68 41)" gradientUnits="userSpaceOnUse"
            id="41n__41n__paint2_radial_149_1444"
            r="1">
            <stop id="stop24" stop-color="#D5D5D5" />
            <stop id="stop26" offset="1" stop-color="#D0D0D0" />
            <stop id="stop28" offset="1" stop-color="#9B9B9B" stop-opacity="0" />
        </radialGradient>
        <filter color-interpolation-filters="sRGB" filterUnits="userSpaceOnUse" height="40.101" id="41n__41n__filter0_f_149_1444" width="79"
            x="14.5" y="33">
            <feFlood flood-opacity="0" id="feFlood31" result="BackgroundImageFix" />
            <feBlend id="feBlend33" in="SourceGraphic" in2="BackgroundImageFix" result="shape" />
            <feGaussianBlur id="feGaussianBlur35" result="effect1_foregroundBlur_149_1444"
                stdDeviation="2" />
        </filter>
    </defs>
</svg>
