<?xml version="1.0" encoding="UTF-8" standalone="no"?>
<svg
   width="100"
   height="100"
   fill="none"
   viewBox="0 0 100 100"
   version="1.1"
   id="svg33"
   sodipodi:docname="46.svg"
   inkscape:version="1.2.1 (9c6d41e4, 2022-07-14)"
   xmlns:inkscape="http://www.inkscape.org/namespaces/inkscape"
   xmlns:sodipodi="http://sodipodi.sourceforge.net/DTD/sodipodi-0.dtd"
   xmlns="http://www.w3.org/2000/svg"
   xmlns:svg="http://www.w3.org/2000/svg">
  <sodipodi:namedview
     id="namedview35"
     pagecolor="#ffffff"
     bordercolor="#000000"
     borderopacity="0.25"
     inkscape:showpageshadow="2"
     inkscape:pageopacity="0.0"
     inkscape:pagecheckerboard="0"
     inkscape:deskcolor="#d1d1d1"
     showgrid="false"
     inkscape:zoom="2.36"
     inkscape:cx="50"
     inkscape:cy="50"
     inkscape:window-width="1309"
     inkscape:window-height="456"
     inkscape:window-x="0"
     inkscape:window-y="25"
     inkscape:window-maximized="0"
     inkscape:current-layer="svg33" />
  <path
     fill="#CCC"
     fill-rule="evenodd"
     d="M81.3 42.9C79.4 31.6 69.4 23 57.7 23c-9.1 0-17.3 5.1-21.3 13.1-1.2-.5-2.4-.7-3.6-.7-4.2 0-7.8 2.5-9.2 6.2-.6-.1-1.1-.1-1.7-.1-4.1 0-7.9 1.6-10.7 4.5C8.5 48.8 7 52.4 7 56.2v.2c.1 4.1 1.7 7.8 4.6 10.5 2.7 2.7 6.4 4.2 10.3 4.2h55.7c7.9 0 14.4-6.4 14.4-14.3 0-6.6-4.5-12.3-10.7-13.9z"
     clip-rule="evenodd"
     id="path2" />
  <path
     fill="url(#46__46__paint0_linear_149_1457)"
     fill-rule="evenodd"
     d="M81.3 42.9C79.4 31.6 69.4 23 57.7 23c-9.1 0-17.3 5.1-21.3 13.1-1.2-.5-2.4-.7-3.6-.7-4.2 0-7.8 2.5-9.2 6.2-.6-.1-1.1-.1-1.7-.1-4.1 0-7.9 1.6-10.7 4.5C8.5 48.8 7 52.4 7 56.2v.2c.1 4.1 1.7 7.8 4.6 10.5 2.7 2.7 6.4 4.2 10.3 4.2h55.7c7.9 0 14.4-6.4 14.4-14.3 0-6.6-4.5-12.3-10.7-13.9z"
     clip-rule="evenodd"
     style="mix-blend-mode:multiply"
     opacity=".6"
     id="path4" />
  <g
     style="mix-blend-mode:multiply"
     filter="url(#46__46__filter0_f_149_1457)"
     opacity=".3"
     id="g8">
    <path
       fill="url(#46__46__paint1_radial_149_1457)"
       d="M29.5 64c1.787 0 24.848-1.272 26.48-2 2.23-.994-2.39-6.972 0-7.47 1.08-.224 2.667-.927 2.667-.927s4.352-1.602 5.103-1.602c.75 0 .374-2.964.14-4.81l-.14-1.32c0-.87-2.592-2.674-3-4.87-.284-1.527.424-3.585.276-3.968 0 0-.05-.029-.036-.032.014-.004.026.007.036.032.112.053.922.327.922.327 1.948.66 5.03 1.74 7.802 3.64 1.658 1.138 3.941 3.314 3.941 3.314s1.645 1.272 2.059 1.687c1 1 4 4 6 4h5L89 51.59l.5 3.21c0 7.9-6.5 14.3-14.4 14.3H18.5S23 64 29.5 64z"
       id="path6" />
  </g>
  <path
     fill="#006EDB"
     d="M35.5 99c-.3 0-.7-.1-1-.2-1.3-.6-1.8-2-1.3-3.3l3.5-8c.6-1.3 2-1.8 3.3-1.3 1.3.6 1.8 2 1.3 3.3l-3.5 8c-.4 1-1.3 1.5-2.3 1.5zm24-9c-.3 0-.7-.1-1-.2-1.3-.6-1.8-2-1.3-3.3l3.5-8c.6-1.3 2-1.8 3.3-1.3 1.3.6 1.8 2 1.3 3.3l-3.5 8c-.4 1-1.3 1.5-2.3 1.5z"
     id="path10"
     style="fill:#4fc3f7;fill-opacity:1" />
  <defs
     id="defs31">
    <radialGradient
       id="46__46__paint1_radial_149_1457"
       cx="0"
       cy="0"
       r="1"
       gradientTransform="matrix(6 22.50004 -32.59285 8.69142 68 41)"
       gradientUnits="userSpaceOnUse">
      <stop
         stop-color="#D5D5D5"
         id="stop12" />
      <stop
         offset="1"
         stop-color="#D0D0D0"
         id="stop14" />
      <stop
         offset="1"
         stop-color="#9B9B9B"
         stop-opacity="0"
         id="stop16" />
    </radialGradient>
    <linearGradient
       id="46__46__paint0_linear_149_1457"
       x1="47.5"
       x2="49.5"
       y1="38.5"
       y2="71.1"
       gradientUnits="userSpaceOnUse">
      <stop
         offset=".484"
         stop-color="#fff"
         stop-opacity="0"
         id="stop19" />
      <stop
         offset="1"
         stop-color="#B3B2B2"
         id="stop21" />
    </linearGradient>
    <filter
       id="46__46__filter0_f_149_1457"
       width="79"
       height="40.101"
       x="14.5"
       y="33"
       color-interpolation-filters="sRGB"
       filterUnits="userSpaceOnUse">
      <feFlood
         flood-opacity="0"
         result="BackgroundImageFix"
         id="feFlood24" />
      <feBlend
         in="SourceGraphic"
         in2="BackgroundImageFix"
         result="shape"
         id="feBlend26" />
      <feGaussianBlur
         result="effect1_foregroundBlur_149_1457"
         stdDeviation="2"
         id="feGaussianBlur28" />
    </filter>
  </defs>
</svg>
