<svg xmlns="http://www.w3.org/2000/svg" width="100" height="100" fill="none" viewBox="0 0 100 100"><path fill="url(#02m__02m__paint0_radial_149_1383)" fill-rule="evenodd" d="M64.248 41H9l15.4 6.8-9.9 13.7 16.7-1.8-1.7 16.8 13.212-9.618c-1.088-1.834-1.671-3.938-1.712-6.15v-.124c0-3.16 1.24-6.135 3.47-8.365a12.25 12.25 0 018.117-3.718c1.673-2.417 4.461-3.842 7.497-3.842h.682A18.298 18.298 0 0164.248 41zM44.044 68.707L50 82l4.029-9.124h-.699c-3.222 0-6.258-1.177-8.55-3.408a12.195 12.195 0 01-.736-.76zm21.53 4.17L70.5 76.4l-.38-3.524h-4.546zm22.608-30.614c-.448-.445-.92-.867-1.412-1.263H91l-2.818 1.263z" clip-rule="evenodd"/><path fill="#171F28" fill-rule="evenodd" d="M69.659 38H6.5a1.5 1.5 0 000 3h57.748a18.374 18.374 0 015.41-3zm17.111 3a18.216 18.216 0 00-5.394-3H93.5a1.5 1.5 0 010 3h-6.73z" clip-rule="evenodd"/><path fill="#FFD348" fill-rule="evenodd" d="M64.248 41a18.298 18.298 0 00-3.482 3.683h-.682c-3.036 0-5.824 1.425-7.497 3.842a12.25 12.25 0 00-8.117 3.718A11.765 11.765 0 0041 60.608v.123a12.82 12.82 0 00.652 3.834c-5.447-1.913-10.26-5.693-13.368-11.056A24.921 24.921 0 0125 41h39.248z" clip-rule="evenodd"/><path fill="url(#02m__02m__paint1_linear_149_1383)" fill-rule="evenodd" d="M64.248 41a18.298 18.298 0 00-3.482 3.683h-.682c-3.036 0-5.824 1.425-7.497 3.842a12.25 12.25 0 00-8.117 3.718 11.761 11.761 0 00-3.453 7.72 20.986 20.986 0 01-9.213-8.465A20.71 20.71 0 0129 41h35.248z" clip-rule="evenodd"/><path fill="#DDD" fill-rule="evenodd" d="M90.272 52.428c-1.177-7.001-7.374-12.33-14.623-12.33-5.639 0-10.72 3.16-13.198 8.117a5.715 5.715 0 00-2.23-.434c-2.603 0-4.834 1.55-5.701 3.842-.372-.062-.682-.062-1.053-.062-2.541 0-4.896.992-6.63 2.788-1.674 1.735-2.603 3.966-2.603 6.32v.124c.062 2.54 1.053 4.833 2.85 6.506 1.673 1.673 3.966 2.603 6.383 2.603h34.512c4.895 0 8.923-3.966 8.923-8.86 0-4.09-2.788-7.622-6.63-8.614z" clip-rule="evenodd"/><path fill="url(#02m__02m__paint2_linear_149_1383)" fill-rule="evenodd" d="M90.272 52.428c-1.177-7.001-7.374-12.33-14.623-12.33-5.639 0-10.72 3.16-13.198 8.117a5.715 5.715 0 00-2.23-.434c-2.603 0-4.834 1.55-5.701 3.842-.372-.062-.682-.062-1.053-.062-2.541 0-4.896.992-6.63 2.788-1.674 1.735-2.603 3.966-2.603 6.32v.124c.062 2.54 1.053 4.833 2.85 6.506 1.673 1.673 3.966 2.603 6.383 2.603h34.512c4.895 0 8.923-3.966 8.923-8.86 0-4.09-2.788-7.622-6.63-8.614z" clip-rule="evenodd" style="mix-blend-mode:multiply" opacity=".6"/><g style="mix-blend-mode:multiply" filter="url(#02m__02m__filter0_f_149_1383)" opacity=".3"><path fill="url(#02m__02m__paint3_radial_149_1383)" d="M58.176 65.503c1.107 0 15.396-.789 16.407-1.24 1.382-.616-1.481-4.32 0-4.628.669-.139 1.652-.575 1.652-.575s2.698-.992 3.163-.992c.465 0 .232-1.837.086-2.98l-.086-.819c0-.539-1.606-1.657-1.86-3.017-.175-.947.263-2.221.172-2.459 0 0-.032-.017-.022-.02.008-.002.016.005.022.02.07.033.571.203.571.203 1.207.409 3.116 1.078 4.834 2.256 1.028.704 2.442 2.053 2.442 2.053s1.02.788 1.276 1.045c.62.62 2.478 2.478 3.718 2.478h3.098l1.394.985.31 1.99c0 4.895-4.028 8.86-8.923 8.86H51.36s2.788-3.16 6.816-3.16z"/></g><defs><radialGradient id="02m__02m__paint0_radial_149_1383" cx="0" cy="0" r="1" gradientTransform="matrix(41 0 0 41 50 41)" gradientUnits="userSpaceOnUse"><stop offset=".514" stop-color="#D6B849"/><stop offset=".652" stop-color="#FFCE47"/><stop offset="1" stop-color="#FFDB73"/></radialGradient><radialGradient id="02m__02m__paint3_radial_149_1383" cx="0" cy="0" r="1" gradientTransform="rotate(75.069 7.66 79.012) scale(14.4287 20.9009)" gradientUnits="userSpaceOnUse"><stop stop-color="#D5D5D5"/><stop offset="1" stop-color="#D0D0D0"/><stop offset="1" stop-color="#9B9B9B" stop-opacity="0"/></radialGradient><linearGradient id="02m__02m__paint1_linear_149_1383" x1="36.5" x2="63.499" y1="24.912" y2="57.089" gradientUnits="userSpaceOnUse"><stop stop-color="#FFAF22"/><stop offset=".99" stop-color="#F09900"/></linearGradient><linearGradient id="02m__02m__paint2_linear_149_1383" x1="69.329" x2="70.568" y1="49.702" y2="69.902" gradientUnits="userSpaceOnUse"><stop offset=".484" stop-color="#fff" stop-opacity="0"/><stop offset="1" stop-color="#B3B2B2"/></linearGradient><filter id="02m__02m__filter0_f_149_1383" width="48.95" height="24.847" x="48.881" y="46.294" color-interpolation-filters="sRGB" filterUnits="userSpaceOnUse"><feFlood flood-opacity="0" result="BackgroundImageFix"/><feBlend in="SourceGraphic" in2="BackgroundImageFix" result="shape"/><feGaussianBlur result="effect1_foregroundBlur_149_1383" stdDeviation="1.239"/></filter></defs></svg>